<svg width="435" height="253" xmlns="http://www.w3.org/2000/svg" xmlns:xlink="http://www.w3.org/1999/xlink" overflow="hidden"><defs><clipPath id="clip0"><rect x="0" y="0" width="435" height="253"/></clipPath></defs><g clip-path="url(#clip0)"><rect x="0" y="0" width="435" height="252.64" fill="#FFFFFF"/><rect x="0" y="116.833" width="435" height="72.896" fill="#D9D9D9"/><rect x="0" y="0" width="435" height="124.822" fill="#F2F2F2"/><path d="M131.5 83.8804C131.5 73.1262 140.23 64.4082 151 64.4082 161.77 64.4082 170.5 73.1262 170.5 83.8804 170.5 94.6346 161.77 103.353 151 103.353 140.23 103.353 131.5 94.6346 131.5 83.8804Z" stroke="#4D009A" stroke-width="2.66871" stroke-linejoin="round" stroke-miterlimit="10" fill="#4D009A" fill-rule="evenodd"/><text fill="#FFFFFF" font-family="Open Sans,Open Sans_MSFontService,sans-serif" font-weight="700" font-size="18" transform="matrix(1 0 0 0.998576 145.548 90)">1</text><path d="M170.509 82.8807 188.048 82.9803 188.031 85.9783 170.491 85.8787ZM186.564 79.9738 195.546 84.522 186.513 88.9678Z"/><text font-family="Open Sans,Open Sans_MSFontService,sans-serif" font-weight="700" font-size="15" transform="matrix(1 0 0 0.998576 173.357 77)">s1<tspan fill="#9BBB59" font-size="16" x="23.488" y="-47.067">Reproduction</tspan><tspan font-size="15" x="198.739" y="41.0585">s4</tspan></text><path d="M195.5 83.8804C195.5 73.1262 204.454 64.4082 215.5 64.4082 226.546 64.4082 235.5 73.1262 235.5 83.8804 235.5 94.6346 226.546 103.353 215.5 103.353 204.454 103.353 195.5 94.6346 195.5 83.8804Z" stroke="#51127C" stroke-width="2.66871" stroke-linejoin="round" stroke-miterlimit="10" fill="#51127C" fill-rule="evenodd"/><text fill="#FFFFFF" font-family="Open Sans,Open Sans_MSFontService,sans-serif" font-weight="700" font-size="18" transform="matrix(1 0 0 0.998576 209.946 90)">2</text><path d="M299.5 82.8807 318.722 82.8808 318.722 85.8788 299.5 85.8787ZM317.221 79.8827 326.228 84.3798 317.221 88.8768Z"/><path d="M326.5 83.8804C326.5 73.1262 335.23 64.4082 346 64.4082 356.77 64.4082 365.5 73.1262 365.5 83.8804 365.5 94.6346 356.77 103.353 346 103.353 335.23 103.353 326.5 94.6346 326.5 83.8804Z" stroke="#DE4968" stroke-width="2.66871" stroke-linejoin="round" stroke-miterlimit="10" fill="#DE4968" fill-rule="evenodd"/><text fill="#FFFFFF" font-family="Open Sans,Open Sans_MSFontService,sans-serif" font-weight="700" font-size="18" transform="matrix(1 0 0 0.998576 340.435 90)">4<tspan fill="#000000" font-size="15" x="-36.9112" y="-13.0185">s3</tspan><tspan fill="#000000" font-size="15" x="-101.893" y="-13.0185">s2</tspan></text><path d="M0.201088-1.98854 5.75567-1.42684C5.87936-1.41433 6.00167-1.3903 6.1209-1.35507L11.6131 0.267612C11.7198 0.299156 11.8238 0.339578 11.9238 0.388433L17.2912 3.00969 22.8322 6.70308 28.145 11.2833 29.3472 12.5471 26.4343 15.2846 25.5284 14.3052 20.6059 10.0231 15.537 6.6016 10.1697 3.98034 10.4804 4.10116 4.98826 2.47847 5.35349 2.55024-0.201088 1.98854ZM37.2284 21.813 37.9 22.6752 42.2999 29.3589 46.3667 36.593 49.9921 44.3395 52.4228 50.4778 48.7054 51.9475 46.3705 46.0316 42.881 38.5498 38.9592 31.5542 34.7464 25.1316 34.0748 24.2695ZM56.2347 62.1278 58.1113 69.7999 59.759 78.842 60.7778 88.0299 60.9908 94.0824 56.9958 94.2192 56.8045 88.4684 55.8261 79.5571 54.2284 70.7497 52.3518 63.0776ZM60.8002 106.204 60.7887 106.542 59.7792 115.742 58.2007 124.732 56.0518 133.535 54.6164 138.057 50.8076 136.844 52.1689 132.585 54.2639 124.039 55.806 115.304 56.7936 106.405 56.8052 106.067ZM50.4869 149.441 50.1697 150.259 46.5595 157.997 42.635 165.221 38.2431 171.917 34.0072 177.381 30.8501 174.929 34.9025 169.721 39.1234 163.311 42.9379 156.305 46.4425 148.814 46.7597 147.996ZM25.3251 186.156 23.4826 187.792 18.0356 191.508C17.9213 191.586 17.7992 191.651 17.6714 191.704L11.1612 194.372 9.6452 190.673 16.1554 188.005 15.7911 188.2 20.8292 184.802 22.6717 183.167ZM13.61 197.969 0.630136 194.61 11.1057 186.241Z" fill="#9BBB59" transform="matrix(-1.83959e-16 -1 -1.00143 1.83697e-16 345.887 64.5391)"/><path d="M346.978 103.768 347.353 105.89 347.234 105.514 348.172 107.511 347.981 107.206 349.544 109.141 349.343 108.936 351.343 110.621 351.152 110.485 353.527 111.92 355.966 112.948 355.762 112.878 358.574 113.627 358.318 113.582 361.193 113.831 360.868 113.838 363.743 113.464 363.463 113.528 366.275 112.592 365.982 112.726 368.607 111.166 368.408 111.307 370.783 109.31 370.599 109.494 372.537 107.185 372.398 107.381 373.96 104.759 373.826 105.052 374.763 102.243 374.699 102.524 375.074 99.6527 375.067 99.9765 374.817 97.1056 374.862 97.362 374.112 94.5535 374.183 94.7577 373.058 92.1365 371.716 89.9505 372.181 90.4303 370.778 89.5177 372.416 87.0057 373.819 87.9183C374.009 88.0414 374.167 88.2054 374.284 88.3981L375.817 90.9555 376.942 93.5767C376.971 93.6432 376.994 93.7112 377.013 93.781L377.763 96.5895C377.785 96.6735 377.8 96.7592 377.808 96.8459L378.058 99.7168C378.067 99.8246 378.065 99.9332 378.051 100.041L377.676 102.911C377.664 103.007 377.642 103.1 377.612 103.192L376.674 106C376.64 106.102 376.595 106.2 376.54 106.293L374.977 108.914C374.936 108.983 374.89 109.048 374.838 109.11L372.901 111.419C372.845 111.486 372.783 111.547 372.717 111.603L370.342 113.6C370.28 113.653 370.213 113.7 370.143 113.742L367.518 115.302C367.425 115.357 367.327 115.402 367.225 115.436L364.412 116.372C364.321 116.403 364.227 116.424 364.132 116.437L361.257 116.811C361.149 116.825 361.04 116.827 360.932 116.818L358.057 116.568C357.971 116.561 357.885 116.546 357.801 116.523L354.988 115.774C354.918 115.756 354.85 115.732 354.784 115.704L351.973 114.485 349.598 113.05C349.531 113.009 349.467 112.963 349.407 112.913L347.407 111.228C347.334 111.166 347.267 111.097 347.207 111.023L345.644 109.088C345.568 108.995 345.504 108.892 345.453 108.784L344.516 106.786C344.46 106.667 344.42 106.541 344.397 106.411L344.022 104.289ZM370.549 92.8849 365.177 84.3797 375.214 85.1912Z"/><path d="M260.5 83.8804C260.5 73.1262 269.23 64.4082 280 64.4082 290.77 64.4082 299.5 73.1262 299.5 83.8804 299.5 94.6346 290.77 103.353 280 103.353 269.23 103.353 260.5 94.6346 260.5 83.8804Z" stroke="#972C80" stroke-width="2.66871" stroke-linejoin="round" stroke-miterlimit="10" fill="#972C80" fill-rule="evenodd"/><text fill="#FFFFFF" font-family="Open Sans,Open Sans_MSFontService,sans-serif" font-weight="700" font-size="18" transform="matrix(1 0 0 0.998576 274.353 90)">3</text><path d="M0.00852398-1.49899 17.5323-1.39934 17.5152 1.59864-0.00852398 1.49899ZM16.0503-4.40584 25.0187 0.142268 15.9992 4.58809Z" transform="matrix(1.00143 0 0 -1 235.5 84.522)"/><path d="M131.5 155.778C131.5 145.024 140.23 136.306 151 136.306 161.77 136.306 170.5 145.024 170.5 155.778 170.5 166.532 161.77 175.25 151 175.25 140.23 175.25 131.5 166.532 131.5 155.778Z" stroke="#4D009A" stroke-width="2.66871" stroke-linejoin="round" stroke-miterlimit="10" fill="#4D009A" fill-rule="evenodd"/><text fill="#FFFFFF" font-family="Open Sans,Open Sans_MSFontService,sans-serif" font-weight="700" font-size="18" transform="matrix(1 0 0 0.998576 145.548 161)">1</text><path d="M170.509 153.78 188.048 153.879 188.031 156.877 170.491 156.778ZM186.564 150.873 195.546 155.421 186.513 159.867Z"/><text font-family="Open Sans,Open Sans_MSFontService,sans-serif" font-weight="700" font-size="15" transform="matrix(1 0 0 0.998576 173.357 147)">s1<tspan font-size="15" x="199.579" y="41.0585">s4</tspan></text><path d="M195.5 155.778C195.5 145.024 204.454 136.306 215.5 136.306 226.546 136.306 235.5 145.024 235.5 155.778 235.5 166.532 226.546 175.25 215.5 175.25 204.454 175.25 195.5 166.532 195.5 155.778Z" stroke="#51127C" stroke-width="2.66871" stroke-linejoin="round" stroke-miterlimit="10" fill="#51127C" fill-rule="evenodd"/><text fill="#FFFFFF" font-family="Open Sans,Open Sans_MSFontService,sans-serif" font-weight="700" font-size="18" transform="matrix(1 0 0 0.998576 209.946 161)">2</text><path d="M299.5 153.78 318.722 153.78 318.722 156.778 299.5 156.778ZM317.221 150.782 326.228 155.279 317.221 159.776Z"/><path d="M326.5 155.778C326.5 145.024 335.23 136.306 346 136.306 356.77 136.306 365.5 145.024 365.5 155.778 365.5 166.532 356.77 175.25 346 175.25 335.23 175.25 326.5 166.532 326.5 155.778Z" stroke="#DE4968" stroke-width="2.66871" stroke-linejoin="round" stroke-miterlimit="10" fill="#DE4968" fill-rule="evenodd"/><text fill="#FFFFFF" font-family="Open Sans,Open Sans_MSFontService,sans-serif" font-weight="700" font-size="18" transform="matrix(1 0 0 0.998576 340.435 161)">4<tspan fill="#000000" font-size="15" x="-37.334" y="-14.02">s3</tspan><tspan fill="#000000" font-size="15" x="-101.505" y="-14.02">s2</tspan></text><path d="M260.5 155.778C260.5 145.024 269.23 136.306 280 136.306 290.77 136.306 299.5 145.024 299.5 155.778 299.5 166.532 290.77 175.25 280 175.25 269.23 175.25 260.5 166.532 260.5 155.778Z" stroke="#972C80" stroke-width="2.66871" stroke-linejoin="round" stroke-miterlimit="10" fill="#972C80" fill-rule="evenodd"/><text fill="#FFFFFF" font-family="Open Sans,Open Sans_MSFontService,sans-serif" font-weight="700" font-size="18" transform="matrix(1 0 0 0.998576 274.353 161)">3</text><path d="M0.00852398-1.49899 17.5323-1.39934 17.5152 1.59864-0.00852398 1.49899ZM16.0503-4.40584 25.0187 0.142268 15.9992 4.58809Z" transform="matrix(1.00143 0 0 -1 235.5 155.421)"/><text font-family="Open Sans,Open Sans_MSFontService,sans-serif" font-weight="700" font-size="15" transform="matrix(1 0 0 0.998576 372.499 247)">s4</text><path d="M326.5 212.697C326.5 201.942 335.23 193.224 346 193.224 356.77 193.224 365.5 201.942 365.5 212.697 365.5 223.451 356.77 232.169 346 232.169 335.23 232.169 326.5 223.451 326.5 212.697Z" stroke="#DE4968" stroke-width="2.66871" stroke-linejoin="round" stroke-miterlimit="10" fill="#DE4968" fill-rule="evenodd"/><text fill="#FFFFFF" font-family="Open Sans,Open Sans_MSFontService,sans-serif" font-weight="700" font-size="18" transform="matrix(1 0 0 0.998576 332.428 218)">A<tspan font-size="12" x="12.176" y="3.00428">SP</tspan></text><path d="M10 143.629C10 140.411 12.6117 137.803 15.8334 137.803L83.1665 137.803C86.3882 137.803 89 140.411 89 143.629L89 166.928C89 170.146 86.3882 172.754 83.1665 172.754L15.8334 172.754C12.6117 172.754 10 170.146 10 166.928Z" fill="#558ED5" fill-rule="evenodd"/><text fill="#FFFFFF" font-family="Open Sans,Open Sans_MSFontService,sans-serif" font-weight="700" font-size="18" transform="matrix(1 0 0 0.998576 17.1518 161)">Human</text><path d="M3.75672e-06-1.49901 34.3694-1.49893 34.3694 1.4991-3.75672e-06 1.49901ZM32.8704-4.49695 41.8645 0.000104918 32.8704 4.49712Z" transform="matrix(1.00143 0 0 -1 89.5 155.279)"/><text font-family="Open Sans,Open Sans_MSFontService,sans-serif" font-weight="700" font-size="15" transform="matrix(1 0 0 0.998576 90.9249 148)">raise</text><path d="M365.051 212.376C391.081 212.376 417.111 161.528 417.111 110.681 417.111 59.8343 346.556 8.98715 276 8.98715" stroke="#009999" stroke-width="4.00307" stroke-linejoin="round" stroke-miterlimit="10" stroke-dasharray="32.0245 12.0092" fill="none" fill-rule="evenodd"/><path d="M365.051 155.478C379.098 155.478 393.146 118.855 393.146 82.2325 393.146 45.6098 334.573 8.98717 276 8.98717" stroke="#4F6228" stroke-width="4.00307" stroke-linejoin="round" stroke-miterlimit="10" stroke-dasharray="32.0245 12.0092" fill="none" fill-rule="evenodd"/><path d="M346.978 174.667 347.353 176.789 347.234 176.413 348.172 178.41 347.981 178.105 349.544 180.04 349.343 179.835 351.343 181.52 351.152 181.384 353.527 182.819 355.966 183.847 355.762 183.776 358.574 184.525 358.318 184.48 361.193 184.73 360.868 184.737 363.743 184.363 363.463 184.427 366.275 183.491 365.982 183.625 368.607 182.064 368.408 182.206 370.783 180.209 370.599 180.393 372.537 178.084 372.398 178.279 373.96 175.658 373.826 175.951 374.763 173.142 374.699 173.423 375.074 170.552 375.067 170.875 374.817 168.005 374.862 168.261 374.112 165.452 374.183 165.657 373.058 163.035 371.716 160.849 372.181 161.329 370.778 160.417 372.416 157.905 373.819 158.817C374.009 158.94 374.167 159.104 374.284 159.297L375.817 161.854 376.942 164.476C376.971 164.542 376.994 164.61 377.013 164.68L377.763 167.488C377.785 167.572 377.8 167.658 377.808 167.745L378.058 170.616C378.067 170.724 378.065 170.832 378.051 170.939L377.676 173.81C377.664 173.906 377.642 173.999 377.612 174.09L376.674 176.899C376.64 177.001 376.595 177.099 376.54 177.192L374.977 179.813C374.936 179.882 374.89 179.947 374.838 180.009L372.901 182.318C372.845 182.385 372.783 182.446 372.717 182.502L370.342 184.499C370.28 184.552 370.213 184.599 370.143 184.641L367.518 186.201C367.425 186.256 367.327 186.301 367.225 186.335L364.412 187.271C364.321 187.301 364.227 187.323 364.132 187.335L361.257 187.71C361.149 187.724 361.04 187.726 360.932 187.717L358.057 187.467C357.971 187.46 357.885 187.445 357.801 187.422L354.988 186.673C354.918 186.655 354.85 186.631 354.784 186.603L351.973 185.384 349.598 183.948C349.531 183.908 349.467 183.862 349.407 183.812L347.407 182.127C347.334 182.065 347.267 181.996 347.207 181.922L345.644 179.987C345.568 179.894 345.504 179.791 345.453 179.682L344.516 177.685C344.46 177.566 344.42 177.439 344.397 177.31L344.022 175.188ZM370.549 163.784 365.177 155.279 375.214 156.09Z"/><path d="M346.978 231.585 347.353 233.707 347.234 233.332 348.172 235.329 347.981 235.024 349.544 236.959 349.343 236.754 351.343 238.439 351.152 238.302 353.527 239.738 355.966 240.766 355.762 240.695 358.574 241.444 358.318 241.399 361.193 241.649 360.868 241.656 363.743 241.281 363.463 241.346 366.275 240.409 365.982 240.543 368.607 238.983 368.408 239.125 370.783 237.128 370.599 237.311 372.537 235.002 372.398 235.198 373.96 232.577 373.826 232.87 374.763 230.061 374.699 230.341 375.074 227.47 375.067 227.794 374.817 224.923 374.862 225.18 374.112 222.371 374.183 222.575 373.058 219.954 371.716 217.768 372.181 218.248 370.778 217.335 372.416 214.823 373.819 215.736C374.009 215.859 374.167 216.023 374.284 216.216L375.817 218.773 376.942 221.394C376.971 221.461 376.994 221.529 377.013 221.599L377.763 224.407C377.785 224.491 377.8 224.577 377.808 224.663L378.058 227.534C378.067 227.642 378.065 227.751 378.051 227.858L377.676 230.729C377.664 230.824 377.642 230.918 377.612 231.009L376.674 233.818C376.64 233.92 376.595 234.018 376.54 234.11L374.977 236.732C374.936 236.801 374.89 236.866 374.838 236.928L372.901 239.237C372.845 239.303 372.783 239.365 372.717 239.421L370.342 241.418C370.28 241.47 370.213 241.518 370.143 241.559L367.518 243.12C367.425 243.175 367.327 243.22 367.225 243.254L364.412 244.19C364.321 244.22 364.227 244.242 364.132 244.254L361.257 244.629C361.149 244.643 361.04 244.645 360.932 244.636L358.057 244.386C357.971 244.378 357.885 244.363 357.801 244.341L354.988 243.592C354.918 243.573 354.85 243.55 354.784 243.521L351.973 242.303 349.598 240.867C349.531 240.827 349.467 240.781 349.407 240.73L347.407 239.045C347.334 238.984 347.267 238.915 347.207 238.841L345.644 236.906C345.568 236.812 345.504 236.71 345.453 236.601L344.516 234.604C344.46 234.485 344.42 234.358 344.397 234.228L344.022 232.106ZM370.549 220.703 365.177 212.197 375.214 213.009Z"/><text font-family="Open Sans,Open Sans_MSFontService,sans-serif" font-weight="400" font-size="10" transform="matrix(1 0 0 0.998576 10.9765 122)">BP<tspan font-size="10" x="0" y="64.0913">FP</tspan></text></g></svg>